<svg width="22" height="28" viewBox="0 0 22 28" fill="none" xmlns="http://www.w3.org/2000/svg">
<g clip-path="url(#clip0)">
<mask id="path-1-inside-1" fill="white">
<path d="M21.6252 25.0621C20.9985 22.6484 19.6175 20.5156 17.6964 18.9944C15.7753 17.4732 13.4215 16.6487 11 16.6487C8.57853 16.6487 6.22471 17.4732 4.30363 18.9944C2.38254 20.5156 1.00154 22.6484 0.374817 25.0621L11 28L21.6252 25.0621Z"/>
</mask>
<path d="M21.6252 25.0621C20.9985 22.6484 19.6175 20.5156 17.6964 18.9944C15.7753 17.4732 13.4215 16.6487 11 16.6487C8.57853 16.6487 6.22471 17.4732 4.30363 18.9944C2.38254 20.5156 1.00154 22.6484 0.374817 25.0621L11 28L21.6252 25.0621Z" stroke="white" stroke-width="4" mask="url(#path-1-inside-1)"/>
<path d="M17.3334 7.56757C17.3334 11.2246 14.4684 14.1351 11 14.1351C7.53162 14.1351 4.66669 11.2246 4.66669 7.56757C4.66669 3.91053 7.53162 1 11 1C14.4684 1 17.3334 3.91053 17.3334 7.56757Z" stroke="white" stroke-width="2"/>
</g>
<defs>
<clipPath id="clip0">
<rect width="22" height="28" fill="white"/>
</clipPath>
</defs>
</svg>
